<mxfile host="app.diagrams.net" modified="2020-08-23T03:03:59.522Z" agent="5.0 (Windows NT 10.0; Win64; x64) AppleWebKit/537.36 (KHTML, like Gecko) Chrome/84.0.4147.135 Safari/537.36" etag="fbHKjY2z-AkdAsuoUPw2" version="13.6.4" type="github">
  <diagram id="XePNZ8RyTEBNvWTDxhOs" name="Page-1">
    <mxGraphModel dx="1704" dy="1557" grid="1" gridSize="10" guides="1" tooltips="1" connect="1" arrows="1" fold="1" page="1" pageScale="1" pageWidth="827" pageHeight="1169" math="0" shadow="0">
      <root>
        <mxCell id="0" />
        <mxCell id="1" parent="0" />
        <mxCell id="wNEoZBbxvFsP1NaD30cC-2" value="Manage Room" style="ellipse;whiteSpace=wrap;html=1;" vertex="1" parent="1">
          <mxGeometry x="-653" y="-10" width="120" height="80" as="geometry" />
        </mxCell>
        <mxCell id="wNEoZBbxvFsP1NaD30cC-16" style="edgeStyle=orthogonalEdgeStyle;rounded=0;orthogonalLoop=1;jettySize=auto;html=1;" edge="1" parent="1" source="wNEoZBbxvFsP1NaD30cC-3" target="wNEoZBbxvFsP1NaD30cC-17">
          <mxGeometry relative="1" as="geometry">
            <mxPoint x="-340" y="170" as="targetPoint" />
          </mxGeometry>
        </mxCell>
        <mxCell id="wNEoZBbxvFsP1NaD30cC-3" value="Manage Devices" style="ellipse;whiteSpace=wrap;html=1;" vertex="1" parent="1">
          <mxGeometry x="-533" y="160" width="120" height="80" as="geometry" />
        </mxCell>
        <mxCell id="wNEoZBbxvFsP1NaD30cC-18" style="edgeStyle=orthogonalEdgeStyle;rounded=0;orthogonalLoop=1;jettySize=auto;html=1;" edge="1" parent="1" source="wNEoZBbxvFsP1NaD30cC-4" target="wNEoZBbxvFsP1NaD30cC-19">
          <mxGeometry relative="1" as="geometry">
            <mxPoint x="-330" y="280" as="targetPoint" />
          </mxGeometry>
        </mxCell>
        <mxCell id="wNEoZBbxvFsP1NaD30cC-4" value="Manage Users" style="ellipse;whiteSpace=wrap;html=1;" vertex="1" parent="1">
          <mxGeometry x="-533" y="270" width="120" height="80" as="geometry" />
        </mxCell>
        <mxCell id="wNEoZBbxvFsP1NaD30cC-10" style="edgeStyle=orthogonalEdgeStyle;rounded=0;orthogonalLoop=1;jettySize=auto;html=1;" edge="1" parent="1" source="wNEoZBbxvFsP1NaD30cC-5" target="wNEoZBbxvFsP1NaD30cC-9">
          <mxGeometry relative="1" as="geometry">
            <Array as="points">
              <mxPoint x="-660" y="420" />
            </Array>
          </mxGeometry>
        </mxCell>
        <mxCell id="wNEoZBbxvFsP1NaD30cC-11" style="edgeStyle=orthogonalEdgeStyle;rounded=0;orthogonalLoop=1;jettySize=auto;html=1;" edge="1" parent="1" source="wNEoZBbxvFsP1NaD30cC-5" target="wNEoZBbxvFsP1NaD30cC-12">
          <mxGeometry relative="1" as="geometry">
            <mxPoint x="-480" y="550" as="targetPoint" />
            <Array as="points">
              <mxPoint x="-660" y="520" />
            </Array>
          </mxGeometry>
        </mxCell>
        <mxCell id="wNEoZBbxvFsP1NaD30cC-15" style="edgeStyle=orthogonalEdgeStyle;rounded=0;orthogonalLoop=1;jettySize=auto;html=1;entryX=0;entryY=0.5;entryDx=0;entryDy=0;" edge="1" parent="1" source="wNEoZBbxvFsP1NaD30cC-5" target="wNEoZBbxvFsP1NaD30cC-14">
          <mxGeometry relative="1" as="geometry">
            <Array as="points">
              <mxPoint x="-660" y="740" />
              <mxPoint x="-533" y="740" />
            </Array>
          </mxGeometry>
        </mxCell>
        <mxCell id="wNEoZBbxvFsP1NaD30cC-24" style="edgeStyle=orthogonalEdgeStyle;rounded=0;orthogonalLoop=1;jettySize=auto;html=1;entryX=-0.008;entryY=0.588;entryDx=0;entryDy=0;entryPerimeter=0;" edge="1" parent="1" source="wNEoZBbxvFsP1NaD30cC-5" target="wNEoZBbxvFsP1NaD30cC-25">
          <mxGeometry relative="1" as="geometry">
            <mxPoint x="-510" y="800" as="targetPoint" />
            <Array as="points">
              <mxPoint x="-660" y="847" />
            </Array>
          </mxGeometry>
        </mxCell>
        <mxCell id="wNEoZBbxvFsP1NaD30cC-27" value="" style="edgeStyle=orthogonalEdgeStyle;rounded=0;orthogonalLoop=1;jettySize=auto;html=1;" edge="1" parent="1" source="wNEoZBbxvFsP1NaD30cC-5" target="wNEoZBbxvFsP1NaD30cC-26">
          <mxGeometry relative="1" as="geometry">
            <Array as="points">
              <mxPoint x="-660" y="940" />
            </Array>
          </mxGeometry>
        </mxCell>
        <mxCell id="wNEoZBbxvFsP1NaD30cC-33" value="" style="edgeStyle=orthogonalEdgeStyle;rounded=0;orthogonalLoop=1;jettySize=auto;html=1;" edge="1" parent="1" source="wNEoZBbxvFsP1NaD30cC-5" target="wNEoZBbxvFsP1NaD30cC-32">
          <mxGeometry relative="1" as="geometry">
            <Array as="points">
              <mxPoint x="-660" y="1080" />
            </Array>
          </mxGeometry>
        </mxCell>
        <mxCell id="wNEoZBbxvFsP1NaD30cC-42" style="edgeStyle=orthogonalEdgeStyle;rounded=0;orthogonalLoop=1;jettySize=auto;html=1;entryX=0.031;entryY=0.633;entryDx=0;entryDy=0;entryPerimeter=0;" edge="1" parent="1" source="wNEoZBbxvFsP1NaD30cC-5" target="wNEoZBbxvFsP1NaD30cC-41">
          <mxGeometry relative="1" as="geometry">
            <Array as="points">
              <mxPoint x="-660" y="636" />
            </Array>
          </mxGeometry>
        </mxCell>
        <mxCell id="wNEoZBbxvFsP1NaD30cC-43" style="edgeStyle=orthogonalEdgeStyle;rounded=0;orthogonalLoop=1;jettySize=auto;html=1;" edge="1" parent="1" source="wNEoZBbxvFsP1NaD30cC-5" target="wNEoZBbxvFsP1NaD30cC-44">
          <mxGeometry relative="1" as="geometry">
            <mxPoint x="-660" y="1271.3333740234375" as="targetPoint" />
            <Array as="points">
              <mxPoint x="-660" y="1250" />
            </Array>
          </mxGeometry>
        </mxCell>
        <mxCell id="wNEoZBbxvFsP1NaD30cC-5" value="Login/LogOut" style="ellipse;whiteSpace=wrap;html=1;" vertex="1" parent="1">
          <mxGeometry x="-710" y="170" width="120" height="80" as="geometry" />
        </mxCell>
        <mxCell id="wNEoZBbxvFsP1NaD30cC-6" value="" style="endArrow=classic;html=1;entryX=0.5;entryY=1;entryDx=0;entryDy=0;exitX=1;exitY=0;exitDx=0;exitDy=0;" edge="1" parent="1" source="wNEoZBbxvFsP1NaD30cC-5" target="wNEoZBbxvFsP1NaD30cC-2">
          <mxGeometry width="50" height="50" relative="1" as="geometry">
            <mxPoint x="-650" y="200" as="sourcePoint" />
            <mxPoint x="-600" y="150" as="targetPoint" />
          </mxGeometry>
        </mxCell>
        <mxCell id="wNEoZBbxvFsP1NaD30cC-7" value="" style="endArrow=classic;html=1;entryX=0;entryY=0.5;entryDx=0;entryDy=0;exitX=1;exitY=0.5;exitDx=0;exitDy=0;" edge="1" parent="1" source="wNEoZBbxvFsP1NaD30cC-5" target="wNEoZBbxvFsP1NaD30cC-3">
          <mxGeometry width="50" height="50" relative="1" as="geometry">
            <mxPoint x="-650" y="200" as="sourcePoint" />
            <mxPoint x="-600" y="150" as="targetPoint" />
          </mxGeometry>
        </mxCell>
        <mxCell id="wNEoZBbxvFsP1NaD30cC-8" value="" style="endArrow=classic;html=1;entryX=0.011;entryY=0.338;entryDx=0;entryDy=0;entryPerimeter=0;" edge="1" parent="1" target="wNEoZBbxvFsP1NaD30cC-4">
          <mxGeometry width="50" height="50" relative="1" as="geometry">
            <mxPoint x="-600" y="240" as="sourcePoint" />
            <mxPoint x="-600" y="150" as="targetPoint" />
          </mxGeometry>
        </mxCell>
        <mxCell id="wNEoZBbxvFsP1NaD30cC-20" style="edgeStyle=orthogonalEdgeStyle;rounded=0;orthogonalLoop=1;jettySize=auto;html=1;" edge="1" parent="1" source="wNEoZBbxvFsP1NaD30cC-9" target="wNEoZBbxvFsP1NaD30cC-21">
          <mxGeometry relative="1" as="geometry">
            <mxPoint x="-340" y="390" as="targetPoint" />
          </mxGeometry>
        </mxCell>
        <mxCell id="wNEoZBbxvFsP1NaD30cC-22" style="edgeStyle=orthogonalEdgeStyle;rounded=0;orthogonalLoop=1;jettySize=auto;html=1;" edge="1" parent="1" source="wNEoZBbxvFsP1NaD30cC-9" target="wNEoZBbxvFsP1NaD30cC-23">
          <mxGeometry relative="1" as="geometry">
            <mxPoint x="-370" y="490" as="targetPoint" />
          </mxGeometry>
        </mxCell>
        <mxCell id="wNEoZBbxvFsP1NaD30cC-9" value="Dashboard" style="ellipse;whiteSpace=wrap;html=1;" vertex="1" parent="1">
          <mxGeometry x="-533" y="380" width="120" height="80" as="geometry" />
        </mxCell>
        <mxCell id="wNEoZBbxvFsP1NaD30cC-12" value="Manage Schedule&amp;nbsp;" style="ellipse;whiteSpace=wrap;html=1;" vertex="1" parent="1">
          <mxGeometry x="-533" y="480" width="120" height="80" as="geometry" />
        </mxCell>
        <mxCell id="wNEoZBbxvFsP1NaD30cC-14" value="Background Job Hanlder" style="ellipse;whiteSpace=wrap;html=1;" vertex="1" parent="1">
          <mxGeometry x="-533" y="700" width="120" height="80" as="geometry" />
        </mxCell>
        <mxCell id="wNEoZBbxvFsP1NaD30cC-17" value="Manage Device Type" style="ellipse;whiteSpace=wrap;html=1;" vertex="1" parent="1">
          <mxGeometry x="-330" y="120" width="120" height="80" as="geometry" />
        </mxCell>
        <mxCell id="wNEoZBbxvFsP1NaD30cC-19" value="Manage Role" style="ellipse;whiteSpace=wrap;html=1;" vertex="1" parent="1">
          <mxGeometry x="-330" y="240" width="120" height="80" as="geometry" />
        </mxCell>
        <mxCell id="wNEoZBbxvFsP1NaD30cC-21" value="Admin Dashboard" style="ellipse;whiteSpace=wrap;html=1;" vertex="1" parent="1">
          <mxGeometry x="-330" y="340" width="120" height="80" as="geometry" />
        </mxCell>
        <mxCell id="wNEoZBbxvFsP1NaD30cC-23" value="User Dashboard" style="ellipse;whiteSpace=wrap;html=1;" vertex="1" parent="1">
          <mxGeometry x="-330" y="460" width="120" height="80" as="geometry" />
        </mxCell>
        <mxCell id="wNEoZBbxvFsP1NaD30cC-25" value="Notification email/sms" style="ellipse;whiteSpace=wrap;html=1;" vertex="1" parent="1">
          <mxGeometry x="-533" y="800" width="120" height="80" as="geometry" />
        </mxCell>
        <mxCell id="wNEoZBbxvFsP1NaD30cC-26" value="Api Management" style="ellipse;whiteSpace=wrap;html=1;" vertex="1" parent="1">
          <mxGeometry x="-533" y="900" width="120" height="80" as="geometry" />
        </mxCell>
        <mxCell id="wNEoZBbxvFsP1NaD30cC-35" value="" style="edgeStyle=orthogonalEdgeStyle;rounded=0;orthogonalLoop=1;jettySize=auto;html=1;" edge="1" parent="1" source="wNEoZBbxvFsP1NaD30cC-32" target="wNEoZBbxvFsP1NaD30cC-34">
          <mxGeometry relative="1" as="geometry">
            <Array as="points">
              <mxPoint x="-370" y="1080" />
              <mxPoint x="-370" y="1120" />
            </Array>
          </mxGeometry>
        </mxCell>
        <mxCell id="wNEoZBbxvFsP1NaD30cC-38" value="" style="edgeStyle=orthogonalEdgeStyle;rounded=0;orthogonalLoop=1;jettySize=auto;html=1;" edge="1" parent="1" source="wNEoZBbxvFsP1NaD30cC-32" target="wNEoZBbxvFsP1NaD30cC-37">
          <mxGeometry relative="1" as="geometry">
            <Array as="points">
              <mxPoint x="-370" y="1080" />
              <mxPoint x="-370" y="1250" />
            </Array>
          </mxGeometry>
        </mxCell>
        <mxCell id="wNEoZBbxvFsP1NaD30cC-39" style="edgeStyle=orthogonalEdgeStyle;rounded=0;orthogonalLoop=1;jettySize=auto;html=1;" edge="1" parent="1" source="wNEoZBbxvFsP1NaD30cC-32" target="wNEoZBbxvFsP1NaD30cC-40">
          <mxGeometry relative="1" as="geometry">
            <mxPoint x="-290" y="1000" as="targetPoint" />
            <Array as="points">
              <mxPoint x="-370" y="1080" />
              <mxPoint x="-370" y="1000" />
            </Array>
          </mxGeometry>
        </mxCell>
        <mxCell id="wNEoZBbxvFsP1NaD30cC-32" value="Mobile&amp;nbsp;" style="ellipse;whiteSpace=wrap;html=1;" vertex="1" parent="1">
          <mxGeometry x="-533" y="1040" width="120" height="80" as="geometry" />
        </mxCell>
        <mxCell id="wNEoZBbxvFsP1NaD30cC-34" value="Simple Admin UI" style="ellipse;whiteSpace=wrap;html=1;" vertex="1" parent="1">
          <mxGeometry x="-320" y="1080" width="120" height="80" as="geometry" />
        </mxCell>
        <mxCell id="wNEoZBbxvFsP1NaD30cC-37" value="Dashboard" style="ellipse;whiteSpace=wrap;html=1;" vertex="1" parent="1">
          <mxGeometry x="-320" y="1210" width="120" height="80" as="geometry" />
        </mxCell>
        <mxCell id="wNEoZBbxvFsP1NaD30cC-40" value="Login/Logout" style="ellipse;whiteSpace=wrap;html=1;" vertex="1" parent="1">
          <mxGeometry x="-320" y="950" width="120" height="80" as="geometry" />
        </mxCell>
        <mxCell id="wNEoZBbxvFsP1NaD30cC-41" value="Manage logs" style="ellipse;whiteSpace=wrap;html=1;" vertex="1" parent="1">
          <mxGeometry x="-533" y="585" width="120" height="80" as="geometry" />
        </mxCell>
        <mxCell id="wNEoZBbxvFsP1NaD30cC-44" value="Support/Helps" style="ellipse;whiteSpace=wrap;html=1;" vertex="1" parent="1">
          <mxGeometry x="-533" y="1210.0033740234376" width="120" height="80" as="geometry" />
        </mxCell>
      </root>
    </mxGraphModel>
  </diagram>
</mxfile>
